<svg id="svg" version="1.1" xmlns="http://www.w3.org/2000/svg" xmlns:xlink="http://www.w3.org/1999/xlink" width="400" height="400" viewBox="0, 0, 400,400"><g id="svgg"><path id="path0" d="M0.000 325.000 L 0.000 400.000 150.000 400.000 L 300.000 400.000 300.000 375.000 L 300.000 350.000 175.000 350.000 L 50.000 350.000 50.000 300.000 L 50.000 250.000 25.000 250.000 L 0.000 250.000 0.000 325.000 " stroke="none" fill="#1464c4" fill-rule="evenodd"></path><path id="path1" d="M50.000 75.000 L 50.000 100.000 25.000 100.000 L 0.000 100.000 0.000 175.000 L 0.000 250.000 25.000 250.000 L 50.000 250.000 50.000 300.000 L 50.000 350.000 175.000 350.000 L 300.000 350.000 300.000 325.000 L 300.000 300.000 200.000 300.000 L 100.000 300.000 100.000 275.000 L 100.000 250.000 225.000 250.000 L 350.000 250.000 350.000 225.000 L 350.000 200.000 300.000 200.000 L 250.000 200.000 250.000 175.000 L 250.000 150.000 300.000 150.000 L 350.000 150.000 350.000 100.000 L 350.000 50.000 300.000 50.000 L 250.000 50.000 250.000 75.000 L 250.000 100.000 200.000 100.000 L 150.000 100.000 150.000 75.000 L 150.000 50.000 100.000 50.000 L 50.000 50.000 50.000 75.000 M200.000 175.000 L 200.000 200.000 150.000 200.000 L 100.000 200.000 100.000 175.000 L 100.000 150.000 150.000 150.000 L 200.000 150.000 200.000 175.000 " stroke="none" fill="#4cac54" fill-rule="evenodd"></path><path id="path2" d="M100.000 275.000 L 100.000 300.000 225.000 300.000 L 350.000 300.000 350.000 275.000 L 350.000 250.000 225.000 250.000 L 100.000 250.000 100.000 275.000 " stroke="none" fill="#dc4414" fill-rule="evenodd"></path><path id="path3" d="M150.000 175.000 L 150.000 200.000 175.000 200.000 L 200.000 200.000 200.000 175.000 L 200.000 150.000 175.000 150.000 L 150.000 150.000 150.000 175.000 M300.000 175.000 L 300.000 200.000 325.000 200.000 L 350.000 200.000 350.000 175.000 L 350.000 150.000 325.000 150.000 L 300.000 150.000 300.000 175.000 " stroke="none" fill="#040404" fill-rule="evenodd"></path><path id="path4" d="M100.000 175.000 L 100.000 200.000 125.000 200.000 L 150.000 200.000 150.000 175.000 L 150.000 150.000 125.000 150.000 L 100.000 150.000 100.000 175.000 M250.000 175.000 L 250.000 200.000 275.000 200.000 L 300.000 200.000 300.000 175.000 L 300.000 150.000 275.000 150.000 L 250.000 150.000 250.000 175.000 " stroke="none" fill="#fcfcfc" fill-rule="evenodd"></path></g></svg>