<?xml version="1.0" standalone="no"?>
<!DOCTYPE svg PUBLIC "-//W3C//DTD SVG 20010904//EN"
 "http://www.w3.org/TR/2001/REC-SVG-20010904/DTD/svg10.dtd">
<svg version="1.0" xmlns="http://www.w3.org/2000/svg"
 width="1024.000000pt" height="1024.000000pt" viewBox="0 0 1024.000000 1024.000000"
 preserveAspectRatio="xMidYMid meet">

<g transform="translate(0.000000,1024.000000) scale(0.100000,-0.100000)"
fill="#000000" stroke="none">
<path d="M6152 7193 c-38 -21 -314 -300 -1122 -1133 -590 -608 -1078 -1118
-1086 -1135 -24 -52 -254 -992 -254 -1039 0 -25 5 -57 11 -73 24 -64 108 -123
176 -123 62 0 1053 229 1096 253 45 27 2162 2203 2196 2259 30 49 33 127 7
181 -23 47 -787 782 -848 815 -57 30 -113 29 -176 -5z m432 -776 l129 -123
-907 -935 c-500 -514 -912 -935 -916 -937 -11 -4 -461 429 -458 440 2 5 410
429 908 942 l905 933 105 -99 c58 -54 163 -153 234 -221z m-2124 -2186 c0 -7
-289 -75 -295 -69 -2 2 12 67 32 146 l35 142 114 -106 c63 -59 114 -109 114
-113z"/>
<path d="M3152 3409 c-47 -14 -109 -79 -123 -131 -23 -89 12 -182 88 -229 l38
-24 1965 0 1965 0 38 24 c21 13 50 42 65 64 23 34 27 52 27 107 0 55 -4 73
-27 107 -15 22 -44 51 -65 64 l-38 24 -1950 2 c-1212 1 -1962 -2 -1983 -8z"/>
</g>
</svg>
